<svg
   xmlns="http://www.w3.org/2000/svg">
   <path
         id="path14"
         style="fill:#f58717; fill-opacity:1; fill-rule:nonzero; stroke:none"
         d="m 6660.69,3736.06 c 0,0 534.48,649.76 345.84,1257.6 -188.64,607.84 -995.6,691.68 -1582.48,345.84 -586.88,-345.84 -1121.36,-1372.88 -1886.4,-1498.64 0,0 282.96,-94.32 817.44,251.52 534.48,345.84 1142.32,1121.36 1739.68,1079.44 597.36,-41.92 775.52,-827.92 314.4,-1226.16 0,0 136.24,492.56 -52.4,806.96 0,0 136.24,-534.48 -241.04,-796.48 0,0 -52.4,485.96 -293.44,683.14 0,0 199.12,-421.14 94.32,-693.62 0,0 -1027.04,-41.92 -1697.76,-723.12 0,0 1121.36,639.28 2263.68,398.24 l 146.72,-471.6 c 0,0 -1435.76,125.76 -2358,-691.68 0,0 1414.8,670.72 2651.44,440.16 l -262,838.4" />
         <path
         id="path16"
         style="fill:#f58717;fill-opacity:1;fill-rule:nonzero;stroke:none"
         d="m 4019.73,4291.5 c 0,0 -610.12,73.44 -911.76,-241.04 -328.38,-342.35 -157.2,-1184.24 733.6,-1027.04 l 178.16,-513.52 c 0,0 691.68,534.48 1383.36,628.8 0,0 -524,73.36 -1289.04,-324.88 l -167.68,440.16 c 0,0 -544.96,-167.68 -765.04,251.52 -220.08,419.2 225.82,709.62 838.4,786" />
         </svg>